<svg xmlns="http://www.w3.org/2000/svg" viewBox="0 0 32 32">
  <rect width="32" height="32" fill="#000"/>
  <g transform="translate(14 16.25) scale(1.05 1) translate(-16 -16)">
  <g fill="#fff">
    <path d="M16.4 1.3 20.8 4.5H12.1Z"/>
    <path d="M12.6 5.1H21.3L21.9 9 15.9 29.3H7.9Z"/>
    <path d="M20.6 8.8 29.4-.2H31.2V5.6L22.2 8.5Z"/>
    <path d="M20.8 9.3 31.2 8.6V11.9L29.5 13 21.4 9.9Z"/>
    <path d="M18 26.7H22V29.2H18Z"/>
    <path d="M5 29.4C11 28.9 19 28.8 24.2 28.9 26 29.2 27.4 29.8 27.8 30.4 26 30.7 24 30.7 22 30.6 16 30.5 10 30.5 5.2 30.5Z"/>
  </g>
  <g fill="#000">
    <path d="M21.9 9.4C17.5 9.8 14 10.7 10.8 12.2V13.3C14.2 11.8 17.8 10.9 22 10.4Z"/>
    <path d="M20.9 14C16.4 14.6 12.6 16 9.6 18V19.3C12.9 17.1 16.6 15.8 21.1 15.1Z"/>
  </g>
  </g>
</svg>
