<svg xmlns="http://www.w3.org/2000/svg" width="1200" height="630" viewBox="0 0 1200 630" role="img" aria-labelledby="title desc">
  <title id="title">Checklist SEO: 21 puntos</title><desc id="desc">Portada Faro de checklist técnico SEO.</desc>
  <defs><linearGradient id="bg" x1="0" y1="0" x2="1" y2="1"><stop stop-color="#0A0D17"/><stop offset="1" stop-color="#131829"/></linearGradient><linearGradient id="beam" x1="0" y1="1" x2="1" y2="0"><stop stop-color="#3D5AFE" stop-opacity=".18"/><stop offset="1" stop-color="#5B72FF" stop-opacity="0"/></linearGradient></defs>
  <rect width="1200" height="630" fill="url(#bg)"/><path d="M680 630 L1200 70 L1200 300 Z" fill="url(#beam)"/><path d="M0 542 H1200" stroke="#28304C"/>
  <g fill="none" stroke-width="2"><rect x="739" y="139" width="344" height="316" rx="12" fill="#0E1322" stroke="#28304C"/><path d="M777 210 L786 219 L801 200 M818 210 H1026 M777 274 L786 283 L801 264 M818 274 H987 M777 338 L786 347 L801 328 M818 338 H1015" stroke="#5B72FF"/><rect x="818" y="226" width="178" height="7" rx="3.5" fill="#28304C" stroke="none"/><rect x="818" y="226" width="146" height="7" rx="3.5" fill="#3D5AFE" stroke="none"/><rect x="818" y="290" width="178" height="7" rx="3.5" fill="#28304C" stroke="none"/><rect x="818" y="290" width="119" height="7" rx="3.5" fill="#5B72FF" stroke="none"/><rect x="818" y="354" width="178" height="7" rx="3.5" fill="#28304C" stroke="none"/><rect x="818" y="354" width="163" height="7" rx="3.5" fill="#3D5AFE" stroke="none"/></g>
  <g font-family="Consolas, 'Courier New', monospace" font-size="14" fill="#5B72FF" letter-spacing="2"><rect x="72" y="72" width="76" height="36" rx="18" fill="#11172A" stroke="#5B72FF"/><text x="93" y="95">SEO</text><text x="777" y="178" fill="#5A6484" letter-spacing="1">AUDITORÍA / 21</text><text x="1012" y="431" fill="#5B72FF" letter-spacing="0">18 / 21</text></g>
  <g font-family="Segoe UI, Arial, Helvetica, sans-serif"><text x="72" y="237" fill="#EAEDF6" font-size="70" font-weight="800" letter-spacing="-3"><tspan x="72">Checklist SEO:</tspan><tspan x="72" dy="76">21 puntos</tspan></text><text x="72" y="430" fill="#9AA2BC" font-size="30" letter-spacing="-.6">Qué revisar en tu web y cuánto pesa cada punto</text><text x="72" y="588" fill="#EAEDF6" font-size="30" font-weight="800" letter-spacing="-1.5">Faro<tspan fill="#5B72FF">°</tspan></text></g>
  <text x="1128" y="588" text-anchor="end" fill="#5A6484" font-family="Consolas, 'Courier New', monospace" font-size="14">faroagencia.cl</text>
</svg>
